# xmcd
#
# Track frame offsets:
# 151
# 12423
# 23792
# 46579
# 66488
# 75947
# 94571
# 121969
# 135637
# 149798
# 165861
# 181997
# 199196
#
# Disc length: 2825 seconds
#
#
# Revision: 0
# Processed by: cddbd v1.5.2PL0 Copyright (c) Steve Scherf et al.
# Submitted via: Nero 7, 11, 10, 0 
#
DISCID=a50b070d
DTITLE=Tall Guy Blues Band - They Call Me The Tall Guy
DYEAR=1998
DGENRE=Blues
TTITLE0=Probably
TTITLE1=Spillin' Money
TTITLE2=Wrong Direction Airplane
TTITLE3=They Call Me The Tall Guy
TTITLE4=She's Only Twenty Three
TTITLE5=Found Me A Woman
TTITLE6=Lucky Stiff
TTITLE7=Cigarette
TTITLE8=Achin' All Over
TTITLE9=Love Predator
TTITLE10=Your Real Name
TTITLE11=Tell Me One Thing
TTITLE12=Flim Flam
EXTD=
EXTT0=Probably
EXTT1=Spillin' Money
EXTT2=Wrong Direction Airplane
EXTT3=They Call Me The Tall Guy
EXTT4=She's Only Twenty Three
EXTT5=Found Me A Woman
EXTT6=Lucky Stiff
EXTT7=Cigarette
EXTT8=Achin' All Over
EXTT9=Love Predator
EXTT10=Your Real Name
EXTT11=Tell Me One Thing
EXTT12=Flim Flam
PLAYORDER=
